<svg xmlns="http://www.w3.org/2000/svg" viewBox="0 0 1160 65"><defs><style>.a{fill:#666;fill-rule:evenodd;}.b{fill:#fff;}</style></defs><title>Booking</title><path class="a" d="M1160,65S880,38,580,38,0,65,0,65V27S280,0,580,0s580,27,580,27Z"/><path class="b" d="M506.41,20.88a1.21,1.21,0,0,0-.46-1,6.13,6.13,0,0,0-1.69-.75,11.22,11.22,0,0,1-1.93-.78,3.14,3.14,0,0,1-1.94-2.82,2.72,2.72,0,0,1,.52-1.64,3.4,3.4,0,0,1,1.49-1.13,5.66,5.66,0,0,1,2.19-.41,5.19,5.19,0,0,1,2.17.44A3.5,3.5,0,0,1,508.24,14a3.3,3.3,0,0,1,.53,1.83h-2.35a1.54,1.54,0,0,0-.49-1.22,2,2,0,0,0-1.38-.43,2.18,2.18,0,0,0-1.34.36,1.15,1.15,0,0,0-.48,1,1.1,1.1,0,0,0,.56.93,6.44,6.44,0,0,0,1.65.7,7,7,0,0,1,2.91,1.5,3,3,0,0,1,.92,2.21,2.75,2.75,0,0,1-1.12,2.32,4.91,4.91,0,0,1-3,.84,5.83,5.83,0,0,1-2.39-.48,3.7,3.7,0,0,1-1.64-1.32,3.33,3.33,0,0,1-.57-1.93h2.35c0,1.25.75,1.88,2.25,1.88a2.19,2.19,0,0,0,1.31-.34A1.11,1.11,0,0,0,506.41,20.88Z"/><path class="b" d="M519.6,20.07a4.07,4.07,0,0,1-1.35,2.9A4.79,4.79,0,0,1,515,24a4.3,4.3,0,0,1-3.44-1.47,6.07,6.07,0,0,1-1.25-4.05v-.69a6.75,6.75,0,0,1,.58-2.89A4.32,4.32,0,0,1,512.56,13a5.15,5.15,0,0,1,5.67.39,4.35,4.35,0,0,1,1.39,3h-2.35a2.34,2.34,0,0,0-.61-1.6,2.28,2.28,0,0,0-1.61-.5,2,2,0,0,0-1.75.84,4.69,4.69,0,0,0-.6,2.61v.86a5,5,0,0,0,.56,2.69,2,2,0,0,0,1.76.86,2.29,2.29,0,0,0,1.62-.5,2.22,2.22,0,0,0,.62-1.54Z"/><path class="b" d="M525.77,19.7h-1.86v4.16h-2.35V12.49h4.23a4.78,4.78,0,0,1,3.11.9A3.09,3.09,0,0,1,530,15.93a3.56,3.56,0,0,1-.5,1.94A3.49,3.49,0,0,1,528,19.11l2.46,4.64v.11h-2.51Zm-1.86-1.9h1.89a1.91,1.91,0,0,0,1.36-.45,1.58,1.58,0,0,0,.49-1.24,1.7,1.7,0,0,0-.46-1.26,1.88,1.88,0,0,0-1.4-.46h-1.88Z"/><path class="b" d="M539,18.93h-4.5V22h5.28v1.88h-7.62V12.49h7.61v1.9h-5.27V17.1H539Z"/><path class="b" d="M548.55,18.93h-4.5V22h5.28v1.88h-7.62V12.49h7.61v1.9h-5.27V17.1h4.5Z"/><path class="b" d="M560.52,23.86h-2.35l-4.56-7.48v7.48h-2.34V12.49h2.34l4.57,7.5v-7.5h2.34Z"/><path class="b" d="M571.49,19.25a12.23,12.23,0,0,1,.47-3.39,9.88,9.88,0,0,1,1.42-3A6,6,0,0,1,575.32,11l.3,1a6.19,6.19,0,0,0-1.87,2.67,11.38,11.38,0,0,0-.8,4v.66a11.52,11.52,0,0,0,1.1,5.23,6.17,6.17,0,0,0,1.58,2.08l-.3.89a6.34,6.34,0,0,1-2-1.94A10.86,10.86,0,0,1,571.49,19.25Z"/><path class="b" d="M583.71,18.84h-4.77v5h-1.5V12.49h7v1.23h-5.55v3.89h4.77Z"/><path class="b" d="M590.77,19.26H588.1v4.6h-1.51V12.49h3.77a4.49,4.49,0,0,1,3,.87,3.17,3.17,0,0,1,1,2.55,3.06,3.06,0,0,1-.57,1.85,3.4,3.4,0,0,1-1.6,1.18l2.67,4.83v.09h-1.61ZM588.1,18h2.31a2.62,2.62,0,0,0,1.77-.58,2,2,0,0,0,.66-1.55,2.07,2.07,0,0,0-.62-1.62,2.63,2.63,0,0,0-1.82-.57h-2.3Z"/><path class="b" d="M605.52,18.54a7,7,0,0,1-.56,2.92,4.17,4.17,0,0,1-1.59,1.9,4.39,4.39,0,0,1-6.4-1.88,6.65,6.65,0,0,1-.59-2.83v-.83a6.93,6.93,0,0,1,.57-2.89,4.21,4.21,0,0,1,4-2.6,4.42,4.42,0,0,1,2.41.66,4.24,4.24,0,0,1,1.6,1.92,7,7,0,0,1,.56,2.91ZM604,17.81a5.14,5.14,0,0,0-.81-3.11A2.68,2.68,0,0,0,601,13.62a2.65,2.65,0,0,0-2.24,1.08,5,5,0,0,0-.84,3v.83a5.13,5.13,0,0,0,.82,3.09,2.89,2.89,0,0,0,4.52.06,5.07,5.07,0,0,0,.82-3Z"/><path class="b" d="M616.83,23.86h-1.51L609.6,15.1v8.76h-1.51V12.49h1.51l5.74,8.8v-8.8h1.49Z"/><path class="b" d="M627.71,13.72h-3.66V23.86h-1.49V13.72h-3.65V12.49h8.8Z"/><path class="b" d="M633.17,19.32a12.19,12.19,0,0,1-.46,3.34,9.89,9.89,0,0,1-1.4,2.95,6.27,6.27,0,0,1-2,1.93l-.31-.89A6.31,6.31,0,0,0,631,23.79a12.52,12.52,0,0,0,.74-4.31v-.25a12.84,12.84,0,0,0-.34-3.05,10.39,10.39,0,0,0-1-2.53A6,6,0,0,0,629,11.91l.31-.88a6.12,6.12,0,0,1,2,1.9,10,10,0,0,1,1.4,3A12.33,12.33,0,0,1,633.17,19.32Z"/></svg>